 <svg  version="1.0" xmlns="http://www.w3.org/2000/svg"  width="1024.000000pt" height="1024.000000pt" viewBox="0 0 1024.000000 1024.000000"  preserveAspectRatio="xMidYMid meet">  <g transform="translate(0.000000,1024.000000) scale(0.100000,-0.100000)" fill="#ffffff" stroke="none"> <path d="M315 8635 c-50 -18 -91 -62 -105 -114 -7 -28 -10 -203 -8 -538 3 -557 1 -537 75 -588 l38 -25 528 0 c594 0 575 -2 625 73 l27 41 0 520 0 521 -23 37 c-13 20 -40 47 -60 60 l-37 23 -510 2 c-422 2 -517 0 -550 -12z m1074 -29 c14 -8 37 -26 51 -41 l25 -27 2 -521 3 -521 -25 -38 c-46 -70 -26 -68 -596 -67 -552 1 -538 -1 -589 54 l-25 27 0 531 c0 516 1 533 20 559 42 57 44 57 599 57 410 0 514 -2 535 -13z"/> <path d="M785 8510 c-31 -12 -59 -48 -105 -135 -65 -121 -81 -149 -95 -165 -7 -8 -22 -33 -32 -55 -11 -22 -39 -74 -63 -115 -101 -178 -110 -198 -110 -259 0 -47 5 -66 30 -103 35 -53 87 -96 133 -109 167 -49 385 -56 537 -18 100 25 109 29 162 77 78 71 100 169 57 255 -25 47 -190 336 -255 444 -24 40 -44 75 -44 78 0 14 -68 88 -92 101 -30 15 -91 18 -123 4z m140 -40 c23 -22 292 -475 349 -587 68 -135 -2 -257 -175 -304 -116 -32 -326 -37 -453 -10 -54 11 -117 31 -139 43 -87 48 -128 157 -93 243 9 21 89 167 178 323 178 313 189 327 266 319 27 -3 53 -13 67 -27z"/> <path d="M798 8263 c-24 -28 -258 -435 -265 -461 -4 -16 1 -33 14 -50 32 -43 130 -65 293 -66 207 -2 330 36 330 102 0 21 -146 282 -246 440 -31 48 -37 52 -72 52 -25 0 -45 -7 -54 -17z m116 -57 c20 -30 36 -57 36 -60 0 -4 11 -23 24 -44 65 -102 167 -283 171 -303 7 -33 -10 -46 -89 -71 -94 -29 -284 -32 -398 -5 -111 26 -125 54 -71 139 12 21 23 40 23 42 0 5 67 120 117 201 7 11 15 27 19 35 5 8 23 39 41 68 28 43 39 52 62 52 24 0 35 -10 65 -54z"/> <path d="M820 8202 c-21 -17 -22 -26 -21 -114 2 -93 1 -96 -25 -117 -52 -41 -74 -81 -74 -134 0 -42 4 -53 31 -78 36 -34 98 -53 142 -44 72 16 127 71 127 128 0 26 -40 86 -84 126 -25 23 -26 30 -26 121 0 81 -3 100 -18 113 -23 21 -25 21 -52 -1z m50 -124 l0 -100 50 -47 c43 -40 50 -52 50 -85 0 -50 -15 -75 -55 -92 -93 -39 -195 7 -195 87 0 32 27 76 65 105 l35 26 0 95 c0 103 12 142 36 122 10 -8 14 -37 14 -111z"/> <path d="M1860 8337 c0 -2 -35 -105 -79 -228 -43 -123 -82 -234 -86 -247 -6 -22 -5 -23 46 -20 l52 3 17 50 17 50 99 0 99 0 15 -52 15 -53 57 0 57 0 -23 58 c-13 31 -54 144 -92 249 l-69 193 -62 0 c-35 0 -63 -2 -63 -3z m87 -23 c16 -5 29 -24 48 -78 29 -78 48 -128 95 -258 36 -97 35 -130 -2 -106 -12 8 -26 29 -30 45 -13 51 -30 58 -136 55 -53 -2 -101 -7 -107 -12 -7 -6 -17 -28 -24 -50 -10 -33 -16 -40 -37 -40 -24 0 -25 3 -19 33 4 17 13 43 20 57 7 14 18 43 25 65 42 135 94 272 108 283 18 13 27 14 59 6z"/> <path d="M1908 8223 c-9 -10 -28 -54 -42 -97 -25 -75 -25 -80 -9 -98 13 -15 28 -18 71 -16 81 4 88 17 56 111 -14 42 -33 86 -43 98 -16 20 -17 20 -33 2z m52 -105 l27 -78 -63 0 -63 0 31 92 c17 51 34 86 36 78 3 -8 17 -50 32 -92z"/> <path d="M2190 8090 l0 -250 50 0 50 0 0 250 0 250 -50 0 -50 0 0 -250z m72 205 c2 -11 3 -110 3 -220 0 -200 0 -200 -22 -203 -17 -3 -23 2 -23 15 -2 475 -4 429 19 429 12 0 21 -8 23 -21z"/> <path d="M3180 8090 l0 -250 50 0 50 0 0 105 0 105 100 0 100 0 0 -105 0 -105 50 0 50 0 0 250 0 250 -50 0 -50 0 0 -100 0 -100 -100 0 -100 0 0 100 0 100 -50 0 -50 0 0 -250z m83 41 c7 -6 57 -12 111 -14 129 -5 136 1 136 112 0 70 2 79 20 84 20 5 20 0 20 -223 0 -226 0 -228 -21 -223 -18 5 -20 12 -18 73 1 37 -1 72 -5 79 -5 7 -5 15 -2 18 3 4 -1 15 -11 25 -13 15 -32 18 -113 18 -83 0 -99 -3 -114 -19 -10 -11 -17 -28 -16 -38 1 -10 2 -48 1 -85 -1 -59 -3 -68 -20 -68 -17 0 -18 12 -19 219 -1 200 0 220 16 223 15 3 17 -8 20 -83 2 -55 7 -91 15 -98z"/> <path d="M4030 8090 l0 -250 40 0 c37 0 40 2 40 27 0 27 0 27 15 6 36 -52 136 -53 198 -2 87 72 85 245 -5 312 -40 30 -119 34 -163 9 l-35 -21 0 84 0 85 -45 0 -45 0 0 -250z m62 198 c0 -13 2 -44 3 -71 2 -26 8 -54 15 -62 10 -12 15 -12 38 5 64 45 153 27 191 -40 27 -49 27 -144 0 -190 -43 -70 -133 -89 -196 -42 l-32 24 -13 -21 c-7 -12 -21 -21 -31 -21 -16 0 -17 15 -16 220 1 209 2 220 20 220 13 0 20 -8 21 -22z"/> <path d="M4152 8147 c-45 -29 -61 -62 -62 -120 0 -81 41 -137 101 -137 83 0 122 46 123 146 1 34 -2 60 -6 58 -4 -3 -13 5 -20 17 -10 16 -90 62 -101 58 -1 0 -17 -10 -35 -22z m113 -49 c24 -28 27 -38 23 -87 -4 -44 -10 -59 -32 -78 -48 -41 -107 -26 -132 32 -36 88 -1 164 78 165 29 0 42 -7 63 -32z"/> <path d="M2445 8196 c-36 -16 -82 -67 -91 -102 -4 -13 -4 -53 -2 -88 5 -79 37 -126 103 -151 55 -22 99 -14 139 23 22 20 27 22 23 9 -4 -10 -7 -30 -7 -43 0 -14 -11 -36 -25 -49 -31 -32 -96 -34 -125 -5 -22 22 -110 29 -110 9 0 -26 38 -71 75 -89 90 -44 211 -15 253 59 21 36 22 52 22 235 l0 196 -46 0 c-42 0 -45 -2 -38 -22 6 -21 5 -20 -25 5 -37 31 -94 36 -146 13z m139 -37 c26 -20 28 -20 46 -4 41 37 48 17 49 -147 0 -84 -3 -169 -8 -190 -18 -76 -81 -109 -182 -97 -65 8 -105 33 -90 57 6 10 19 7 57 -13 64 -33 114 -26 151 20 59 74 25 167 -37 105 -40 -40 -136 -16 -176 45 -17 27 -22 105 -9 163 15 72 138 109 199 61z"/> <path d="M2473 8137 c-55 -38 -76 -106 -51 -164 19 -41 31 -51 81 -63 82 -21 137 30 137 127 0 38 -5 54 -26 76 -47 51 -91 58 -141 24z m118 -36 c43 -43 38 -121 -10 -158 -22 -17 -82 -16 -108 2 -32 22 -46 80 -29 120 29 69 97 85 147 36z"/> <path d="M2860 8199 c-76 -32 -119 -122 -104 -219 9 -57 41 -101 94 -127 116 -59 254 5 275 127 14 81 -16 158 -78 204 -32 24 -145 33 -187 15z m159 -26 c3 -5 19 -17 34 -27 16 -9 26 -20 23 -23 -3 -3 1 -15 9 -27 22 -30 19 -119 -5 -165 -24 -48 -70 -71 -145 -71 -102 0 -151 49 -154 158 -3 113 67 177 183 167 27 -2 52 -8 55 -12z"/> <path d="M2887 8141 c-41 -27 -56 -53 -58 -102 -3 -62 8 -95 43 -124 38 -32 90 -33 135 -2 75 50 64 190 -18 233 -38 19 -68 18 -102 -5z m98 -17 c25 -10 45 -58 45 -109 0 -38 -5 -52 -29 -76 -32 -31 -55 -36 -96 -17 -65 30 -75 150 -16 195 17 13 69 17 96 7z"/> <path d="M3632 8054 c4 -125 8 -149 25 -172 40 -54 143 -64 190 -20 l23 21 0 -21 c0 -20 5 -22 48 -22 l47 0 0 180 0 180 -47 0 -48 0 0 -104 c0 -145 -13 -176 -76 -176 -51 0 -57 17 -58 156 l-1 124 -54 0 -54 0 5 -146z m75 28 c0 -152 24 -195 107 -189 51 4 73 53 79 175 2 56 7 105 10 109 4 3 13 3 22 0 13 -5 15 -30 15 -156 0 -134 -2 -150 -17 -154 -10 -2 -28 5 -40 16 -22 20 -23 20 -44 2 -13 -12 -37 -20 -67 -21 -94 -4 -112 28 -112 193 0 117 0 119 23 121 24 1 24 0 24 -96z"/> </g> </svg> 